<?xml version="1.0" standalone="no"?>
<!DOCTYPE svg PUBLIC "-//W3C//DTD SVG 20010904//EN"
 "http://www.w3.org/TR/2001/REC-SVG-20010904/DTD/svg10.dtd">
<svg version="1.0" xmlns="http://www.w3.org/2000/svg"
 width="1280.000000pt" height="1051.000000pt" viewBox="0 0 1280.000000 1051.000000"
 preserveAspectRatio="xMidYMid meet">
<metadata>
Created by potrace 1.16, written by Peter Selinger 2001-2019
</metadata>
<g transform="translate(0.000000,1051.000000) scale(0.100000,-0.100000)"
fill="#000000" stroke="none">
<path d="M5770 10433 c-1324 -95 -2536 -690 -3432 -1682 -716 -792 -1155
-1757 -1283 -2816 -85 -710 -17 -1475 190 -2140 291 -937 825 -1744 1584
-2394 1062 -910 2471 -1341 3881 -1186 1178 130 2244 650 3085 1506 397 404
684 808 939 1319 219 439 368 900 456 1410 53 310 64 448 64 850 1 400 -7 526
-55 820 -179 1116 -683 2088 -1486 2870 -869 848 -1964 1345 -3167 1440 -116
9 -663 11 -776 3z m865 -78 c1058 -106 2025 -525 2830 -1226 776 -675 1336
-1590 1579 -2579 192 -783 202 -1566 30 -2345 -285 -1285 -1067 -2412 -2179
-3138 -986 -644 -2161 -918 -3350 -781 -993 114 -1947 535 -2705 1193 -187
163 -486 473 -633 655 -573 716 -936 1542 -1067 2431 -68 462 -68 1038 0 1500
89 608 304 1228 605 1751 248 430 466 715 815 1065 296 297 473 444 793 659
322 215 710 410 1077 542 454 163 925 258 1445 292 124 8 616 -4 760 -19z"/>
<path d="M5912 10330 c-817 -41 -1561 -256 -2260 -655 -565 -322 -1139 -833
-1537 -1370 -456 -614 -762 -1312 -900 -2055 -99 -529 -111 -1126 -35 -1660
69 -480 204 -939 405 -1374 503 -1094 1401 -1986 2495 -2481 575 -261 1210
-410 1842 -434 818 -31 1578 115 2288 438 803 366 1498 939 2014 1661 458 639
763 1398 875 2175 42 294 46 353 46 745 0 411 -8 514 -61 830 -147 878 -522
1694 -1089 2375 -684 820 -1601 1400 -2615 1655 -485 122 -992 173 -1468 150z
m523 -50 c697 -46 1279 -199 1880 -495 244 -120 336 -172 535 -303 934 -611
1646 -1525 1990 -2552 256 -761 328 -1502 224 -2280 -178 -1331 -877 -2514
-1971 -3336 -499 -375 -1108 -665 -1718 -819 l-170 -43 -9 37 c-14 56 8 263
34 316 27 56 78 101 156 136 34 16 69 35 78 44 22 22 20 77 -4 108 -16 20 -20
40 -20 101 l0 76 -76 79 -75 79 3 57 3 57 125 42 c242 82 543 224 765 360 808
498 1411 1258 1698 2141 137 419 191 769 191 1235 0 349 -23 564 -95 875 -172
742 -520 1370 -1058 1906 -376 374 -734 622 -1201 827 -311 137 -715 252
-1034 293 -83 11 -108 18 -147 45 -158 106 -392 148 -610 109 -136 -24 -296
-83 -398 -146 -27 -16 -56 -29 -66 -29 -39 0 -347 -74 -480 -115 -736 -229
-1366 -649 -1860 -1240 -523 -626 -820 -1344 -905 -2184 -15 -151 -12 -553 5
-733 39 -406 137 -790 297 -1168 83 -196 96 -220 194 -393 473 -823 1237
-1467 2099 -1766 66 -23 126 -44 133 -46 8 -3 -26 -56 -97 -151 l-111 -145 0
-63 c0 -42 -6 -74 -20 -101 -33 -64 -4 -125 69 -145 41 -11 84 -47 105 -89 19
-36 36 -171 36 -284 0 -79 -2 -88 -17 -83 -10 3 -47 12 -83 21 -438 109 -1015
372 -1437 656 -893 600 -1566 1458 -1928 2459 -353 977 -388 2053 -99 3065
398 1393 1420 2569 2754 3165 718 322 1538 470 2315 420z m-140 -955 c141 -37
290 -130 385 -240 159 -186 211 -464 133 -710 -8 -27 -19 -54 -23 -59 -5 -4
-51 25 -103 65 -83 65 -93 77 -86 96 4 12 11 55 15 95 7 90 -13 185 -57 269
-36 67 -62 94 -84 86 -21 -9 -19 -19 15 -62 55 -69 93 -206 83 -297 -8 -69
-20 -59 -15 12 14 196 -143 399 -375 481 -43 16 -82 21 -150 21 -79 -1 -102
-5 -164 -31 -40 -17 -75 -28 -78 -26 -8 9 6 16 71 40 47 17 63 28 63 41 0 29
-46 20 -138 -26 l-79 -38 -61 55 c-111 100 -105 86 -53 117 70 41 212 93 317
116 110 24 285 22 384 -5z m525 -171 c135 -22 358 -77 519 -129 668 -216 1288
-629 1750 -1169 347 -406 582 -824 752 -1336 240 -728 257 -1551 46 -2265
l-32 -110 -1022 -3 -1022 -2 21 47 c29 65 29 154 0 208 -28 51 -39 65 -83 98
l-37 28 29 30 c34 36 49 85 49 157 l0 52 -202 2 -203 1 130 8 c211 12 341 46
452 118 65 42 103 83 103 113 0 17 -5 18 -49 12 -30 -4 -98 1 -172 11 -117 17
-225 16 -289 -1 l-25 -7 25 27 c47 52 59 54 271 49 193 -6 197 -5 250 19 64
29 212 145 206 162 -2 6 -17 10 -33 9 -61 -4 -163 -2 -282 5 l-122 7 48 33 48
32 101 -11 c111 -12 176 -4 255 30 81 34 158 118 158 170 0 31 -12 32 -76 6
-62 -24 -83 -28 -149 -26 -38 2 -39 2 -20 16 11 8 45 35 76 60 l57 45 84 0
c145 0 231 40 310 145 58 76 54 85 -39 85 -43 0 -96 -5 -118 -10 -22 -5 -41
-8 -42 -6 -7 7 81 128 103 143 13 8 60 19 105 24 44 5 95 16 112 25 68 34 137
122 137 175 0 19 -4 21 -32 15 -18 -4 -65 -13 -104 -20 -39 -7 -90 -22 -113
-33 -22 -11 -41 -17 -41 -14 0 4 13 47 30 95 22 65 40 100 70 132 66 72 73
110 43 246 -13 64 -20 78 -35 78 -30 0 -86 -69 -105 -128 -15 -46 -15 -64 -5
-150 12 -95 11 -111 -15 -182 -4 -9 -9 0 -14 22 -5 21 -22 67 -39 104 -35 78
-54 81 -87 14 -40 -78 -28 -148 40 -239 l41 -55 -45 -84 c-24 -46 -48 -87 -54
-92 -7 -5 -10 22 -11 78 -1 94 -33 202 -59 202 -24 0 -77 -53 -96 -95 -24 -52
-25 -172 -3 -261 28 -108 22 -118 -149 -263 -17 -14 -17 -13 -7 13 6 16 15 78
20 140 5 61 14 127 20 146 14 47 13 50 -10 50 -62 0 -163 -91 -207 -185 -25
-54 -28 -74 -31 -185 l-4 -126 -31 -21 c-18 -11 -50 -35 -73 -52 l-41 -31 18
68 c10 37 25 105 34 152 9 47 19 95 22 107 10 41 -22 38 -89 -7 -189 -127
-250 -247 -214 -420 13 -59 13 -77 3 -86 -6 -6 -53 -47 -103 -92 l-90 -80 28
81 c39 109 46 214 23 328 l-17 87 247 928 c135 511 253 954 262 985 13 51 18
58 46 63 61 12 83 60 56 120 -10 21 -6 31 35 89 87 122 93 145 100 372 4 110
9 246 12 303 6 97 5 102 -13 102 -15 0 -47 -46 -135 -197 -64 -109 -135 -233
-158 -276 l-43 -79 6 -111 c4 -62 9 -122 13 -134 5 -18 2 -23 -12 -23 -27 0
-64 -40 -64 -70 0 -26 27 -64 51 -72 9 -3 -68 -305 -265 -1044 -241 -901 -281
-1044 -307 -1079 -17 -22 -44 -69 -62 -105 -29 -60 -32 -73 -32 -163 0 -53 -1
-97 -2 -97 -1 0 -14 15 -28 34 -25 34 -26 34 -15 127 6 52 27 191 47 309 40
236 45 363 29 670 -7 142 -6 168 18 311 41 250 56 392 63 584 6 205 -4 303
-42 381 -14 28 -25 56 -25 62 0 22 -64 84 -110 107 -56 28 -193 55 -270 53
-113 -4 -244 74 -294 173 -20 41 -26 68 -26 118 0 84 -17 172 -46 242 -13 30
-28 79 -35 107 -10 47 -9 56 10 85 11 17 30 50 42 72 21 37 23 38 28 17 6 -24
223 -202 247 -202 18 0 48 61 70 145 14 53 18 107 19 220 0 130 -3 160 -23
225 -34 107 -83 198 -148 275 l-56 66 33 -5 c19 -3 77 -13 129 -22z m-1218
-79 c76 -70 98 -85 120 -82 15 2 25 0 23 -3 -2 -4 -96 -52 -208 -108 -130 -65
-206 -108 -209 -119 -3 -11 -43 -35 -104 -62 -193 -86 -186 -100 77 -161 107
-25 200 -48 206 -53 6 -4 15 -32 18 -61 6 -45 2 -70 -24 -149 -48 -147 -40
-183 39 -175 25 2 36 0 30 -6 -14 -14 -12 -48 4 -71 7 -11 16 -32 19 -46 4
-15 16 -29 27 -32 16 -4 20 -13 20 -50 0 -84 76 -119 180 -82 58 21 97 19 109
-4 6 -10 15 -60 21 -110 10 -81 10 -95 -5 -117 -22 -34 -54 -44 -135 -44 -151
0 -235 -43 -330 -168 -30 -40 -71 -81 -90 -91 -19 -10 -44 -33 -55 -51 -11
-18 -40 -51 -64 -74 -23 -22 -53 -59 -66 -81 -26 -44 -75 -194 -75 -227 0 -12
-19 -51 -42 -87 -23 -36 -48 -77 -56 -90 -14 -23 -15 -22 -200 165 -185 188
-287 311 -311 375 -7 19 -17 42 -23 53 -8 15 -4 25 20 50 16 17 33 40 36 52 4
12 18 26 31 32 28 13 51 53 42 75 -3 9 -26 18 -56 22 -28 4 -51 8 -51 9 0 1
10 22 22 47 34 70 35 163 4 289 -31 127 -32 165 -5 209 23 37 19 61 -9 61 -16
0 -20 10 -25 64 -7 79 -28 131 -69 174 -52 53 -98 38 -57 -20 22 -31 22 -33 7
-87 -26 -90 -42 -128 -55 -124 -24 8 -37 -45 -44 -177 -4 -82 -13 -152 -23
-179 -23 -61 -21 -158 4 -217 l21 -47 -98 6 c-54 4 -189 7 -300 7 l-201 0 -7
51 c-9 68 -69 133 -131 144 -62 10 -123 -10 -166 -56 -88 -92 -68 -237 41
-310 42 -27 126 -59 158 -59 8 0 24 -6 36 -14 12 -8 94 -39 182 -69 120 -41
186 -57 265 -66 138 -16 179 -27 213 -59 47 -44 179 -267 302 -512 102 -202
215 -343 337 -425 113 -75 165 -61 301 78 53 55 99 98 101 96 2 -2 10 -17 18
-32 13 -26 12 -32 -19 -95 -49 -98 -77 -221 -70 -303 5 -64 4 -68 -30 -115
-52 -72 -102 -181 -114 -250 -8 -48 -7 -80 5 -153 9 -51 22 -107 30 -124 12
-29 10 -44 -17 -147 -23 -90 -29 -139 -31 -227 -1 -102 1 -113 21 -135 21 -23
22 -27 12 -123 -7 -70 -7 -139 0 -230 6 -71 12 -154 14 -183 l2 -52 -455 0
-455 0 -354 200 c-195 110 -359 200 -366 200 -6 0 -172 -90 -368 -200 l-356
-200 -182 2 -183 3 -28 95 c-55 186 -89 354 -124 610 -14 97 -18 198 -18 450
-1 349 8 458 60 730 172 916 662 1739 1377 2314 442 354 945 608 1472 742 128
33 303 71 332 73 7 1 54 -37 105 -84z m563 -55 c80 -28 134 -61 204 -126 136
-126 176 -253 126 -404 -8 -25 -26 -58 -39 -75 l-24 -29 -88 33 c-145 55 -445
194 -508 236 -32 21 -71 57 -85 78 -14 22 -40 55 -57 73 -28 30 -38 34 -80 34
-44 0 -47 1 -29 14 45 31 336 175 362 179 75 11 163 6 218 -13z m-515 -230
c10 -6 31 -31 45 -58 37 -67 100 -114 252 -188 l133 -65 -28 -35 c-20 -26 -32
-33 -47 -29 -100 29 -496 123 -785 188 l-65 14 110 53 c114 54 316 130 348
130 10 0 27 -5 37 -10z m93 -351 c93 -23 173 -46 178 -53 5 -6 23 -29 38 -51
16 -22 61 -62 100 -89 57 -39 76 -47 98 -41 23 5 25 4 14 -9 -8 -9 -26 -16
-42 -16 -22 0 -29 -5 -29 -19 0 -25 21 -32 62 -20 18 5 36 9 40 9 13 0 9 -44
-8 -111 -30 -118 -5 -206 81 -289 57 -54 105 -126 105 -156 0 -17 -18 -33 -81
-69 -208 -120 -349 -161 -681 -200 -67 -8 -123 -13 -125 -11 -2 1 22 31 53 65
80 87 130 110 257 118 113 6 164 25 187 67 11 22 12 45 2 138 -7 67 -18 121
-28 135 -8 14 -14 26 -12 27 2 2 29 13 61 26 40 17 57 29 57 42 0 27 -26 23
-129 -22 -51 -22 -120 -48 -152 -57 -54 -15 -60 -15 -83 1 -21 13 -26 24 -26
59 0 44 -13 71 -40 80 -15 5 -7 9 38 23 6 2 12 10 12 19 0 11 -11 15 -41 15
-40 0 -41 1 -34 27 3 15 15 33 26 41 21 15 25 47 7 58 -6 4 -16 0 -22 -8 -12
-17 -116 -34 -116 -19 0 5 14 51 31 103 33 99 39 143 26 196 -5 17 -5 32 0 32
4 0 84 -18 176 -41z m684 -164 c7 -41 21 -92 33 -114 l20 -40 -42 -11 c-24 -6
-50 -13 -58 -16 -12 -3 -19 17 -34 98 -10 57 -25 120 -32 142 -8 21 -14 42
-14 47 0 4 26 -1 58 -12 l58 -19 11 -75z m1745 -226 c-8 -189 -11 -208 -34
-254 -32 -62 -114 -175 -128 -175 -15 0 -13 9 32 176 31 117 38 158 30 166
-21 21 -33 -5 -73 -159 -21 -81 -42 -155 -45 -163 -10 -22 -21 37 -30 147 l-7
92 45 78 c227 395 213 373 216 334 2 -21 -1 -129 -6 -242z m-3714 72 c-2 -59
1 -86 10 -89 7 -2 12 -23 12 -54 0 -28 12 -100 27 -160 24 -98 26 -116 16
-172 -6 -34 -22 -81 -37 -104 -26 -42 -27 -42 -85 -42 l-59 0 -26 52 c-32 64
-34 123 -6 203 11 33 20 84 20 118 0 81 12 64 19 -26 5 -57 9 -72 23 -75 25
-5 33 38 19 105 -13 68 -14 175 -1 223 5 19 19 63 32 97 22 59 23 61 31 35 4
-15 6 -65 5 -111z m1827 45 c26 -21 30 -30 29 -72 0 -27 -4 -69 -8 -94 -12
-66 7 -120 66 -192 59 -73 91 -138 86 -176 -3 -30 -38 -45 -38 -17 0 29 -31
77 -95 145 -100 106 -117 157 -89 266 9 39 14 87 12 115 -3 27 -2 49 1 49 3 0
19 -11 36 -24z m141 -117 c4 -6 8 -59 9 -118 1 -79 6 -115 20 -141 21 -41 21
-41 -39 33 -54 66 -66 94 -66 145 0 56 10 80 34 85 11 2 24 5 28 6 4 0 10 -4
14 -10z m-2846 -400 c10 -6 1 -8 -28 -9 -62 0 -102 -41 -102 -102 0 -36 6 -50
29 -72 40 -38 82 -45 264 -46 146 0 158 1 155 18 -3 14 -19 18 -98 23 -52 4
35 5 194 3 159 -2 356 -4 438 -4 148 0 183 -9 120 -31 -19 -6 -32 -21 -40 -43
-21 -56 -32 -60 -160 -58 -65 1 -139 -1 -167 -6 -30 -5 -98 -3 -170 4 -143 15
-365 16 -382 2 -8 -6 -30 -6 -63 1 -102 22 -169 75 -190 149 -31 116 100 228
200 171z m26 -71 c67 -78 77 -121 26 -113 -15 2 -44 6 -66 9 -70 9 -99 63 -56
106 27 27 72 26 96 -2z m3059 -22 c-51 -35 -177 -167 -246 -256 -84 -109 -159
-222 -296 -445 -250 -409 -277 -459 -584 -1095 -248 -513 -290 -577 -342 -526
-24 24 -42 120 -41 221 0 82 3 96 36 165 19 41 50 94 69 116 143 175 199 247
290 374 154 213 266 379 348 519 40 68 137 219 215 335 278 413 361 519 470
598 45 32 53 35 80 25 l30 -10 -29 -21z m-209 -48 c-45 -46 -110 -125 -145
-177 -70 -103 -326 -390 -611 -686 -100 -104 -212 -228 -248 -274 l-65 -83
-14 26 c-44 83 -67 291 -43 375 5 19 31 59 58 90 93 107 202 254 202 273 0 32
-27 19 -67 -31 -21 -27 -66 -85 -100 -129 -84 -106 -83 -105 -123 -85 -19 9
-56 18 -82 21 -49 5 -49 5 -42 36 25 121 91 243 145 272 17 8 98 24 182 35
190 25 280 43 371 76 97 35 254 114 351 178 123 80 274 161 306 164 3 1 -31
-36 -75 -81z m579 68 c60 -15 112 -41 143 -69 32 -30 28 -35 -26 -24 -97 20
-214 -25 -272 -105 -88 -121 -149 -504 -180 -1118 -6 -113 -13 -213 -16 -223
-5 -15 -11 -10 -33 25 -31 49 -150 172 -229 239 l-53 44 31 145 c71 331 165
615 266 799 35 64 38 91 9 91 -17 0 -67 -95 -126 -242 -89 -221 -147 -417
-199 -672 l-29 -141 40 -35 40 -35 -41 -210 c-135 -690 -232 -962 -523 -1470
-44 -77 -100 -171 -124 -208 -137 -211 -203 -421 -203 -648 0 -71 2 -80 18
-77 14 3 18 20 24 115 14 223 70 385 205 595 156 243 303 522 386 733 115 291
142 386 232 820 25 121 51 242 57 269 l11 50 83 -86 c87 -90 124 -149 124
-196 0 -51 -51 -134 -133 -216 -67 -66 -86 -93 -128 -180 -73 -153 -90 -226
-96 -397 -12 -326 51 -557 251 -929 110 -203 120 -236 113 -353 -5 -89 -35
-207 -112 -432 -13 -38 -38 -131 -55 -205 -59 -250 -157 -507 -224 -587 -37
-44 -108 -74 -200 -84 -237 -27 -286 -45 -378 -141 -72 -74 -106 -134 -153
-268 -46 -129 -50 -137 -75 -145 -78 -25 -122 149 -95 377 27 225 16 376 -45
648 -106 470 -111 507 -120 825 -5 154 -14 352 -20 440 -7 92 -9 223 -6 308 5
122 4 147 -8 147 -45 0 -45 131 1 315 27 106 29 110 54 107 15 -2 37 6 53 19
55 43 107 138 313 567 233 489 327 665 535 1007 326 537 484 730 655 801 68
27 177 32 258 10z m909 -133 c-4 -16 -123 -461 -264 -991 -170 -636 -263 -969
-274 -980 -16 -15 -18 -15 -14 -1 1 9 122 463 268 1008 177 664 269 991 278
991 9 0 10 -8 6 -27z m-753 -14 c46 -14 64 -51 80 -167 20 -136 -4 -473 -52
-749 -37 -215 -41 -299 -23 -460 21 -189 15 -283 -36 -593 -22 -134 -43 -283
-46 -330 l-7 -86 45 -55 44 -54 -13 -55 c-8 -30 -18 -65 -24 -76 -7 -13 -8
-42 -4 -73 6 -45 13 -57 61 -103 46 -44 54 -57 52 -83 -2 -17 -9 -30 -16 -30
-7 0 -50 32 -94 70 -144 124 -155 138 -179 218 -27 88 -28 129 -10 500 17 353
10 729 -18 1027 -26 268 -38 723 -22 835 17 124 39 183 86 232 38 39 46 43 90
43 26 0 65 -5 86 -11z m-264 -86 c-38 -77 -42 -120 -41 -468 1 -229 7 -399 18
-520 42 -451 43 -720 6 -1470 -5 -99 -11 -344 -15 -545 -4 -201 -13 -448 -21
-550 -8 -102 -19 -246 -24 -320 -5 -74 -26 -247 -46 -385 -20 -137 -50 -350
-68 -473 l-31 -223 -18 152 c-11 95 -36 227 -67 351 -52 210 -73 354 -60 428
4 25 32 124 63 220 74 229 80 263 74 384 -5 114 -2 107 -130 349 -190 358
-196 447 -49 665 86 127 101 154 112 192 11 39 14 66 75 650 20 194 33 366 45
595 28 508 89 878 161 969 27 34 33 33 16 -1z m-977 -17 c0 -9 -171 -65 -245
-80 -121 -23 -324 -50 -331 -43 -13 13 42 46 91 56 28 6 125 20 217 31 91 11
184 24 205 29 45 11 63 13 63 7z m-1906 -45 c73 -8 115 -8 157 0 31 6 93 10
137 8 68 -4 84 -8 106 -28 14 -14 26 -31 26 -38 0 -23 40 -94 88 -158 26 -33
132 -148 237 -255 185 -189 259 -278 304 -367 12 -24 29 -43 37 -43 26 0 10
55 -40 136 l-44 71 35 64 c71 129 86 138 174 103 34 -14 40 -20 34 -38 -24
-80 -24 -216 1 -333 6 -30 0 -40 -72 -123 -94 -109 -155 -154 -198 -146 -45 9
-116 59 -189 133 -86 88 -115 131 -232 353 -169 320 -235 428 -298 489 -38 36
-67 44 -222 61 -58 7 -139 27 -228 56 -122 41 -136 48 -120 59 20 15 146 13
307 -4z m1942 -428 c-25 -38 -79 -126 -122 -198 -108 -183 -281 -434 -468
-679 l-91 -119 -3 57 c-6 121 40 236 157 391 65 86 554 615 568 615 2 0 -17
-30 -41 -67z m2945 -681 c-29 -54 -129 -102 -213 -102 -47 0 -43 16 17 59 28
20 71 38 122 49 43 10 79 18 81 16 2 -1 -1 -11 -7 -22z m-455 -88 c13 -60 14
-86 6 -128 -13 -63 -60 -171 -61 -139 -1 12 -8 50 -17 85 -21 81 -15 174 16
222 12 20 25 36 30 36 5 0 16 -34 26 -76z m-282 -256 c-11 -125 -25 -200 -44
-238 -18 -36 -84 -100 -103 -100 -5 0 -7 46 -5 103 5 122 27 176 100 250 26
26 49 47 52 47 3 0 3 -28 0 -62z m499 -22 c-39 -46 -113 -96 -159 -107 -22 -4
-64 -9 -94 -9 l-54 0 43 44 c61 62 159 102 259 105 l34 1 -29 -34z m-2034 -38
c-3 -35 -14 -145 -24 -246 l-18 -183 -48 93 c-44 85 -48 99 -49 163 l0 71 51
49 c27 28 59 65 70 83 12 17 21 32 23 32 1 0 -1 -28 -5 -62z m1208 -152 c-3
-7 -8 -35 -12 -62 -19 -144 -56 -233 -129 -303 -41 -40 -46 -43 -53 -25 -4 10
-8 60 -8 109 0 85 2 93 33 142 18 29 61 75 95 102 63 52 83 62 74 37z m-1329
-224 c28 -57 54 -124 58 -149 10 -65 -15 -135 -79 -224 -75 -105 -114 -177
-130 -240 l-14 -54 -12 55 c-22 110 -31 197 -31 318 0 176 27 289 108 447 l25
50 12 -50 c7 -27 35 -96 63 -153z m1817 72 c-65 -54 -144 -79 -249 -76 -50 1
-94 6 -98 10 -5 5 20 25 54 45 51 30 72 37 118 37 85 1 152 8 180 18 40 15 38
3 -5 -34z m-911 -61 c31 -160 -1 -319 -94 -460 -40 -61 -49 -59 -81 25 -15 39
-22 81 -23 132 -1 66 3 84 31 141 30 60 134 189 153 189 5 0 11 -12 14 -27z
m691 -171 l40 -7 -48 -33 c-26 -18 -63 -40 -82 -48 -37 -15 -145 -17 -293 -6
l-83 7 48 37 c75 56 128 69 263 63 63 -3 133 -9 155 -13z m-271 -250 l129 -17
-34 -26 c-103 -78 -250 -116 -495 -128 l-141 -6 39 45 c51 58 108 95 183 119
107 35 141 36 319 13z m-887 -287 c13 -19 44 -51 71 -72 l48 -38 -19 -44 c-10
-24 -21 -68 -23 -100 -4 -43 -114 -490 -118 -478 -5 13 7 767 12 767 4 0 17
-16 29 -35z m773 -4 c0 -59 -43 -124 -97 -146 -43 -18 -35 -36 27 -65 85 -40
130 -107 130 -192 0 -123 -143 -240 -274 -223 -192 25 -265 222 -117 316 66
42 157 34 214 -19 59 -56 22 -137 -68 -150 -61 -9 -70 -35 -15 -40 95 -9 150
41 150 137 0 48 -3 57 -34 86 -43 40 -108 59 -186 53 -48 -3 -67 -10 -97 -35
-103 -82 -119 -192 -43 -288 l30 -38 -39 -42 c-42 -46 -74 -120 -90 -211 -9
-47 -30 -1200 -31 -1646 l0 -78 -239 0 -238 0 -7 55 c-3 30 -2 74 4 98 6 23
19 110 29 192 10 83 40 301 66 485 46 332 47 339 153 732 94 349 122 438 122
384 0 -27 43 -126 55 -126 6 0 22 11 35 25 l23 24 -31 78 c-58 145 -59 156
-22 304 28 110 35 129 49 123 9 -4 30 -8 46 -9 17 0 40 -6 52 -13 12 -7 33
-12 47 -12 21 0 26 6 30 33 3 17 12 72 20 121 9 48 13 92 10 97 -3 5 69 9 165
9 160 0 171 -1 171 -19z m-3883 -378 l340 -193 471 0 472 0 0 -25 0 -25 -456
0 -457 0 -356 196 c-196 109 -360 197 -366 197 -5 0 -170 -88 -365 -196 l-356
-197 -171 0 c-176 0 -183 2 -183 41 0 5 82 9 191 9 l191 0 346 195 c191 107
349 194 353 193 3 -2 159 -90 346 -195z m0 -73 l344 -190 470 0 469 0 0 -25 0
-25 -459 0 -460 0 -153 83 c-287 157 -555 297 -565 297 -5 0 -168 -85 -362
-190 l-353 -190 -164 0 c-93 0 -164 4 -164 9 0 5 -3 16 -6 25 -5 14 14 16 173
16 l180 0 344 190 c189 104 348 189 353 190 5 0 163 -85 353 -190z m-43 -55
l296 -159 0 -178 0 -178 -45 0 -45 0 0 109 c0 59 -5 121 -10 138 -22 61 -111
82 -165 39 l-30 -24 -3 -131 c-3 -119 -5 -131 -22 -131 -17 0 -18 14 -22 193
-4 212 -11 243 -71 306 -118 124 -344 98 -423 -49 -23 -43 -24 -53 -24 -247
l0 -203 -25 0 -25 0 0 109 c0 59 -5 122 -11 140 -23 65 -119 83 -170 32 -29
-29 -29 -30 -29 -155 l0 -126 -45 0 -45 0 0 179 0 179 298 160 c163 88 302
159 308 159 7 -1 145 -74 308 -162z m3166 -297 c-44 -161 -83 -297 -85 -303
-3 -5 -3 15 0 45 3 30 38 178 77 328 57 214 75 267 81 248 6 -18 -13 -101 -73
-318z m-3374 308 c58 -27 106 -80 123 -135 6 -23 11 -111 11 -215 0 -169 -1
-176 -20 -176 -19 0 -20 7 -20 188 0 175 -2 190 -23 227 -12 21 -41 53 -65 69
-36 26 -51 30 -107 30 -56 0 -71 -4 -107 -30 -24 -16 -53 -48 -65 -69 -21 -37
-23 -52 -23 -227 0 -181 -1 -188 -20 -188 -19 0 -20 7 -20 173 0 237 17 285
120 349 57 35 146 37 216 4z m-1 -71 c65 -49 75 -85 75 -282 l0 -173 -175 0
-175 0 0 173 c0 216 13 250 105 301 46 25 124 16 170 -19z m6226 -27 l-8 -23
-1048 -3 -1049 -2 24 25 23 25 1033 0 1033 0 -8 -22z m-2328 -71 c45 -9 68 -8
110 3 42 11 253 14 1125 17 654 2 1072 0 1072 -6 0 -5 -3 -16 -6 -25 -6 -14
-123 -16 -1230 -16 -760 0 -1224 4 -1224 9 0 19 45 42 70 36 14 -4 51 -12 83
-18z m-4633 -227 l0 -210 -30 0 -30 0 0 104 c0 120 -11 161 -51 181 -58 31
-129 8 -148 -46 -6 -18 -11 -59 -12 -93 l0 -61 -21 45 c-34 74 -98 233 -98
242 0 4 71 8 158 8 135 1 162 3 192 20 19 11 36 19 38 20 1 0 2 -94 2 -210z
m1811 170 l469 0 0 -174 c0 -96 3 -181 6 -190 4 -12 0 -16 -15 -16 -20 0 -21
5 -21 110 0 123 -11 158 -55 178 -55 25 -121 5 -143 -43 -7 -15 -12 -72 -12
-135 0 -91 -3 -110 -15 -110 -12 0 -15 19 -15 109 0 127 -8 154 -49 176 -46
23 -86 19 -123 -14 l-33 -29 -3 -121 c-3 -96 -7 -121 -18 -121 -11 0 -14 23
-14 121 0 120 0 121 -29 150 -22 22 -39 29 -68 29 -84 0 -113 -52 -113 -200 0
-60 -4 -100 -10 -100 -6 0 -10 40 -10 100 0 110 -13 157 -51 184 -35 24 -93
21 -126 -8 -28 -24 -28 -26 -31 -150 l-4 -126 -29 0 -29 0 0 211 0 211 36 -21
c34 -21 46 -21 505 -21z m5092 -40 c-11 -27 -22 -40 -35 -40 -11 0 -33 -13
-49 -29 -28 -28 -29 -34 -29 -118 -1 -57 -6 -97 -15 -113 -13 -23 -14 -17 -15
77 0 57 -5 114 -12 128 -21 47 -92 69 -141 44 -50 -25 -57 -46 -57 -171 0 -98
-3 -118 -15 -118 -12 0 -15 20 -15 118 0 96 -4 121 -18 138 -35 44 -90 56
-141 30 -41 -22 -51 -55 -51 -176 0 -91 -3 -110 -15 -110 -13 0 -15 20 -15
121 l0 121 -31 29 c-43 41 -99 40 -140 0 -29 -29 -29 -30 -29 -150 0 -114 -1
-121 -20 -121 -19 0 -20 7 -20 121 l0 121 -30 30 c-28 28 -36 30 -78 25 -34
-4 -53 -12 -69 -32 -21 -24 -23 -36 -23 -146 0 -99 -3 -119 -15 -119 -12 0
-15 19 -15 110 0 77 -4 120 -14 139 -35 67 -147 67 -182 0 -10 -19 -14 -62
-14 -139 0 -91 -3 -110 -15 -110 -12 0 -15 19 -15 109 0 60 -4 121 -10 135
-17 46 -90 69 -144 45 -42 -20 -56 -65 -56 -183 0 -88 -3 -106 -15 -106 -13 0
-15 20 -15 121 0 120 0 121 -29 150 -22 22 -39 29 -68 29 -84 0 -113 -52 -113
-200 0 -60 -4 -100 -10 -100 -6 0 -10 40 -10 100 0 148 -29 200 -113 200 -29
0 -46 -7 -68 -29 -29 -29 -29 -30 -29 -150 0 -101 -2 -121 -15 -121 -12 0 -15
18 -15 106 0 118 -14 163 -56 183 -50 22 -121 3 -144 -38 -5 -11 -10 -72 -10
-135 0 -96 -3 -116 -15 -116 -12 0 -15 19 -15 110 0 63 -5 120 -12 135 -22 48
-88 68 -142 44 -42 -20 -56 -65 -56 -183 0 -64 -4 -106 -10 -106 -15 0 -12
164 4 241 8 36 21 82 30 102 l15 37 1235 0 1234 0 -15 -40z m-6632 1 c29 -29
29 -31 29 -145 l0 -116 -75 0 -75 0 0 125 0 125 33 20 c43 26 53 25 88 -9z
m802 17 c42 -22 46 -38 47 -160 l0 -118 -75 0 -75 0 0 118 c0 122 5 138 45
160 26 14 32 14 58 0z m-1184 -114 c18 -23 21 -41 21 -136 l0 -109 -72 3 -73
3 -3 106 c-2 95 0 108 18 132 29 37 80 37 109 1z m1596 1 c24 -23 25 -31 25
-135 l0 -110 -75 0 -75 0 0 115 c0 102 2 117 20 135 28 28 75 26 105 -5z m235
5 c18 -18 20 -33 20 -135 l0 -115 -75 0 -75 0 0 110 c0 104 1 112 25 135 30
31 77 33 105 5z m237 -2 c21 -20 23 -29 23 -135 l0 -113 -75 0 -75 0 0 109 c0
94 3 112 21 135 26 33 73 35 106 4z m242 -4 c18 -23 21 -41 21 -135 l0 -109
-75 0 -75 0 0 109 c0 94 3 112 21 135 15 19 30 26 54 26 24 0 39 -7 54 -26z
m2372 0 c21 -23 24 -36 27 -135 l4 -109 -81 0 -81 0 0 109 c0 94 3 112 21 135
28 35 77 36 110 0z m230 7 c22 -18 24 -27 27 -135 l4 -116 -81 0 -81 0 0 94
c0 99 10 143 37 164 24 18 67 15 94 -7z m240 0 c22 -18 24 -27 27 -135 l4
-116 -81 0 -81 0 0 100 c0 101 13 152 42 163 28 11 67 6 89 -12z m239 -1 c18
-18 20 -33 20 -135 l0 -115 -75 0 -75 0 0 110 c0 104 1 112 25 135 30 31 77
33 105 5z m237 -2 c21 -20 23 -29 23 -135 l0 -113 -75 0 -75 0 0 109 c0 94 3
112 21 135 26 33 73 35 106 4z m242 -4 c18 -23 21 -41 21 -135 l0 -109 -81 0
-81 0 4 109 c3 100 5 112 27 135 34 36 82 35 110 0z m236 1 c24 -23 25 -31 25
-135 l0 -110 -80 0 -80 0 0 100 c0 101 13 152 42 163 32 13 70 6 93 -18z m220
19 c32 -13 45 -59 45 -164 l0 -100 -80 0 -80 0 0 110 c0 104 1 112 25 135 24
24 57 31 90 19z m245 -4 c28 -15 40 -65 40 -166 l0 -94 -80 0 -80 0 0 109 c0
94 3 112 21 135 22 28 64 35 99 16z m249 -16 c18 -23 21 -41 21 -135 l0 -109
-75 0 -75 0 0 113 c0 100 2 116 20 135 30 32 82 30 109 -4z m-5469 -219 l0
-25 -605 0 -605 0 0 25 0 25 605 0 605 0 0 -25z m-1240 -95 l0 -40 -88 0 -88
0 -17 35 c-9 20 -17 38 -17 40 0 3 47 5 105 5 l105 0 0 -40z m330 5 c0 -19 5
-35 10 -35 6 0 10 -16 10 -35 l0 -35 -120 0 -120 0 0 35 c0 19 5 35 10 35 6 0
10 16 10 35 l0 35 100 0 100 0 0 -35z m450 0 c0 -24 5 -35 15 -35 10 0 15 -10
15 -32 l0 -32 -32 32 c-83 79 -190 83 -273 10 l-45 -40 0 31 c0 21 5 31 15 31
10 0 15 11 15 35 l0 35 145 0 145 0 0 -35z m360 0 c0 -19 5 -35 10 -35 6 0 10
-16 10 -35 l0 -35 -120 0 -120 0 0 35 c0 19 5 35 10 35 6 0 10 16 10 35 l0 35
100 0 100 0 0 -35z m1150 26 c0 -5 3 -23 6 -40 l7 -31 -517 0 -516 0 0 40 0
40 510 0 c285 0 510 -4 510 -9z m4430 -31 l-20 -40 -1155 0 -1155 0 0 40 0 40
1175 0 1175 0 -20 -40z m-6640 -237 l0 -208 -25 30 c-24 29 -24 34 -25 208 l0
177 25 0 25 0 0 -207z m360 -123 l0 -330 -30 0 -30 0 0 330 0 330 30 0 30 0 0
-330z m276 311 c18 -11 45 -36 60 -57 l29 -37 3 -274 3 -273 -175 0 -176 0 0
255 c0 268 4 300 48 349 51 57 147 74 208 37z m174 -311 l0 -330 -30 0 -30 0
0 330 0 330 30 0 30 0 0 -330z m350 0 l0 -330 -25 0 -25 0 0 330 0 330 25 0
25 0 0 -330z m-1240 163 l0 -138 -38 60 c-51 80 -122 202 -122 209 0 3 36 6
80 6 l80 0 0 -137z m2314 93 c6 -37 3 -50 -19 -81 -24 -36 -25 -44 -25 -186 0
-142 -1 -149 -20 -149 -19 0 -20 7 -20 143 0 172 -10 201 -83 231 -43 18 -50
18 -94 5 -34 -11 -54 -25 -70 -48 -21 -31 -23 -45 -23 -182 0 -139 -1 -149
-19 -149 -17 0 -19 11 -22 148 -4 160 -11 183 -65 219 -36 23 -111 22 -152 -2
-53 -32 -62 -65 -62 -224 0 -133 -1 -141 -19 -141 -18 0 -20 10 -23 154 l-3
155 -30 31 c-76 79 -206 51 -235 -51 -6 -19 -10 -91 -10 -161 l0 -128 -25 0
-25 0 0 230 0 230 519 0 519 0 6 -44z m4366 39 c0 -4 -7 -19 -15 -34 -10 -20
-24 -30 -47 -34 -100 -16 -128 -54 -128 -173 0 -65 -4 -87 -19 -105 -18 -23
-18 -22 -23 85 -4 86 -9 112 -25 134 -62 83 -201 72 -238 -20 -11 -28 -15 -76
-15 -173 0 -126 -1 -135 -19 -135 -18 0 -19 10 -23 154 l-3 155 -30 31 c-76
79 -206 51 -235 -51 -6 -19 -10 -91 -10 -161 0 -103 -3 -128 -14 -128 -11 0
-15 29 -17 143 -4 121 -7 147 -25 177 -36 62 -121 83 -190 47 -53 -27 -64 -66
-64 -226 0 -134 -1 -141 -20 -141 -19 0 -20 7 -20 138 0 151 -10 187 -62 226
-38 27 -118 27 -156 0 -52 -39 -62 -75 -62 -226 0 -131 -1 -138 -20 -138 -19
0 -20 7 -20 141 0 110 -4 149 -16 175 -41 85 -178 93 -231 14 -21 -31 -23 -44
-23 -181 0 -142 -1 -149 -20 -149 -19 0 -20 7 -20 128 0 70 -5 143 -10 163
-28 99 -161 127 -235 49 l-30 -31 -3 -155 c-3 -144 -5 -154 -23 -154 -18 0
-19 8 -19 135 0 189 -20 231 -122 250 -35 7 -38 10 -38 41 l0 34 1145 0 c630
0 1145 -2 1145 -5z m-6330 -255 c0 -127 -4 -200 -10 -200 -6 0 -10 61 -10 164
0 159 -1 164 -24 189 -44 48 -108 48 -152 0 -23 -25 -24 -31 -24 -185 0 -104
-3 -157 -10 -153 -6 4 -10 80 -10 196 l0 189 120 0 120 0 0 -200z m810 0 c0
-127 -4 -200 -10 -200 -6 0 -10 60 -10 161 0 91 -4 169 -10 180 -12 22 -61 49
-89 49 -32 0 -69 -21 -88 -49 -15 -21 -19 -56 -24 -186 l-5 -160 -2 203 -2
202 120 0 120 0 0 -200z m-894 152 c38 -26 44 -55 44 -204 l0 -148 -80 0 -80
0 0 146 c0 146 6 176 39 201 18 14 60 17 77 5z m825 -11 c23 -19 24 -25 27
-180 l3 -161 -80 0 -81 0 0 146 c0 146 6 176 39 201 24 18 66 15 92 -6z m445
-15 l34 -34 0 -146 0 -146 -110 0 -110 0 0 129 c0 146 10 185 54 212 49 30 92
25 132 -15z m300 18 c46 -31 54 -62 54 -209 l0 -135 -110 0 -110 0 0 146 0
146 34 34 c39 39 89 46 132 18z m318 -5 c48 -38 56 -67 56 -209 l0 -130 -116
0 -116 0 4 146 3 146 37 34 c45 40 91 45 132 13z m2332 -13 l34 -34 0 -146 0
-146 -70 0 -70 0 0 134 c0 73 3 154 6 180 6 43 9 46 36 46 21 0 41 -11 64 -34z
m294 19 c51 -26 60 -59 60 -210 l0 -135 -110 0 -110 0 0 146 0 146 34 34 c38
38 77 44 126 19z m325 -7 c45 -35 55 -74 55 -213 l0 -125 -115 0 -115 0 0 131
c0 100 4 139 16 165 30 63 107 83 159 42z m311 6 c46 -31 54 -62 54 -209 l0
-135 -110 0 -110 0 0 135 c0 145 8 179 52 209 29 21 82 20 114 0z m313 1 c49
-25 61 -67 61 -214 l0 -131 -116 0 -115 0 3 146 3 146 37 34 c42 38 80 44 127
19z m337 -19 l34 -34 0 -146 0 -146 -110 0 -110 0 0 129 c0 146 10 185 54 212
49 30 92 25 132 -15z m295 18 c46 -23 59 -66 59 -196 -1 -149 0 -148 -124
-148 l-96 0 0 146 0 146 34 34 c39 39 77 44 127 18z m-3996 -175 c19 -85 35
-157 35 -161 0 -5 -25 -8 -55 -8 l-55 0 0 136 c0 110 3 141 17 165 9 15 18 27
20 25 2 -2 19 -73 38 -157z m1330 -276 c51 -208 68 -311 90 -543 38 -394 61
-535 101 -611 19 -37 19 -36 -20 -49 -37 -12 -156 -130 -156 -155 0 -35 26
-24 76 33 51 57 120 102 157 102 26 0 57 -37 57 -69 0 -25 -4 -29 -39 -35 -42
-6 -131 -67 -223 -152 -100 -91 -219 -137 -391 -150 -177 -13 -355 46 -487
161 -80 70 -131 100 -193 116 l-49 12 8 46 c8 52 7 216 -2 309 -5 49 -3 66 9
80 9 9 31 60 50 114 58 158 86 207 167 289 88 90 119 103 294 119 61 6 127 15
147 21 50 13 112 60 153 116 43 58 125 261 163 400 27 100 28 102 36 65 5 -20
28 -119 52 -219z m-3345 7 l0 -70 -45 0 c-42 0 -46 3 -95 62 -27 35 -50 66
-50 70 0 5 43 8 95 8 l95 0 0 -70z m810 0 l0 -70 -120 0 -120 0 0 70 0 70 120
0 120 0 0 -70z m380 0 l0 -70 -75 0 -75 0 0 70 0 70 75 0 75 0 0 -70z m140 0
l0 -70 -60 0 -60 0 0 70 0 70 60 0 60 0 0 -70z m170 0 l0 -70 -70 0 -70 0 0
70 0 70 70 0 70 0 0 -70z m150 0 l0 -70 -60 0 -60 0 0 70 0 70 60 0 60 0 0
-70z m170 0 l0 -70 -75 0 -75 0 0 70 0 70 75 0 75 0 0 -70z m130 0 l0 -70 -55
0 -55 0 0 70 0 70 55 0 55 0 0 -70z m2190 0 l0 -70 -55 0 -55 0 0 70 0 70 55
0 55 0 0 -70z m140 0 l0 -70 -60 0 -60 0 0 70 0 70 60 0 60 0 0 -70z m170 0
l0 -70 -75 0 -75 0 0 70 0 70 75 0 75 0 0 -70z m140 0 l0 -70 -55 0 -55 0 0
70 0 70 55 0 55 0 0 -70z m180 0 l0 -70 -75 0 -75 0 0 70 0 70 75 0 75 0 0
-70z m140 0 l0 -70 -60 0 -60 0 0 70 0 70 60 0 60 0 0 -70z m170 0 l0 -70 -70
0 -70 0 0 70 0 70 70 0 70 0 0 -70z m150 0 l0 -70 -60 0 -60 0 0 70 0 70 60 0
60 0 0 -70z m170 0 l0 -70 -75 0 -75 0 0 70 0 70 75 0 75 0 0 -70z m140 0 l0
-70 -55 0 -55 0 0 70 0 70 55 0 55 0 0 -70z m180 0 l0 -70 -75 0 -75 0 0 70 0
70 75 0 75 0 0 -70z m140 0 l0 -70 -60 0 -60 0 0 70 0 70 60 0 60 0 0 -70z
m-4970 -155 l0 -65 -426 2 -426 3 -56 63 -55 62 482 0 481 0 0 -65z m1204 38
c2 -16 7 -45 11 -65 l6 -38 -596 0 -595 0 0 65 0 65 584 0 584 0 6 -27z m3775
0 c-13 -16 -39 -45 -58 -65 l-35 -38 -873 0 -873 0 0 65 0 65 932 0 931 0 -24
-27z m-3764 -230 c-3 -54 -11 -140 -16 -192 -24 -215 29 -401 114 -401 23 0
25 -4 30 -67 9 -87 9 -213 1 -280 l-7 -53 -187 0 c-187 0 -187 0 -301 36 -461
146 -920 397 -1309 718 -137 113 -325 288 -341 317 -9 18 19 19 1006 19 l1016
0 -6 -97z m3585 31 c-75 -76 -263 -244 -365 -325 -251 -201 -622 -420 -920
-544 -81 -34 -330 -125 -341 -125 -2 0 -4 117 -4 260 0 259 0 260 -21 260 -21
0 -22 3 -16 68 4 37 7 158 7 270 l0 202 862 0 862 0 -64 -66z m-1670 -829 l0
-315 -119 0 -119 0 -39 53 c-28 37 -42 67 -47 102 -10 66 -19 80 -67 111 -27
17 -46 40 -59 69 -18 43 -60 234 -60 276 0 18 9 19 255 19 l255 0 0 -315z
m-339 -257 c56 -61 111 -151 105 -173 -3 -11 -6 -31 -6 -43 0 -15 -7 -26 -20
-29 -12 -3 -20 -14 -20 -27 0 -17 -6 -22 -22 -22 -19 1 -23 -4 -20 -25 1 -15
-4 -32 -12 -39 -13 -10 -16 -7 -22 14 -8 33 -31 53 -46 38 -7 -7 -7 -19 -1
-39 14 -39 6 -53 -26 -53 -35 0 -81 44 -81 76 0 12 -17 43 -38 67 -48 55 -69
103 -55 126 16 25 145 132 178 147 44 19 53 17 86 -18z m-1441 17 c0 -12 -80
-43 -129 -50 -29 -4 -61 -15 -70 -24 -9 -9 -29 -22 -44 -28 -32 -15 -36 -47
-9 -79 35 -44 92 -55 162 -33 20 7 97 11 182 10 81 -1 165 3 188 9 35 9 44 8
68 -8 15 -11 34 -22 42 -25 8 -3 -225 -6 -517 -6 l-533 -1 93 120 92 119 238
1 c130 0 237 -2 237 -5z m189 -79 c25 -19 55 -43 65 -54 17 -20 17 -21 -30
-28 -26 -4 -93 -4 -148 0 -75 4 -115 2 -156 -9 -74 -20 -103 -19 -125 5 -22
25 -17 30 32 37 21 3 86 29 143 58 102 51 106 52 139 39 18 -8 54 -29 80 -48z
m1654 -102 l49 -54 -154 0 -153 0 0 55 0 55 105 -1 105 0 48 -55z m-1123 -105
c63 -1 191 2 283 6 164 7 169 7 192 -15 12 -12 28 -40 34 -64 15 -60 59 -99
114 -100 26 -1 51 5 62 14 10 8 32 19 48 25 17 5 35 19 41 30 6 11 17 25 25
31 8 6 21 26 30 45 l16 34 178 3 177 2 0 -66 c0 -56 4 -71 25 -96 31 -36 31
-52 3 -72 -20 -14 -161 -16 -1316 -16 -1139 0 -1296 2 -1322 15 -35 18 -37 39
-10 80 15 22 20 47 20 93 l0 63 643 -6 c353 -3 694 -5 757 -6z m1060 -319
l-43 -40 -1132 0 -1131 0 -27 40 -26 40 1201 0 1201 0 -43 -40z m-74 -114
c-14 -58 -26 -169 -26 -258 l0 -96 -27 -6 c-16 -3 -71 -12 -123 -21 -52 -8
-105 -18 -117 -20 -23 -5 -23 -5 -23 127 0 73 -4 139 -8 146 -7 10 -177 12
-818 10 l-809 -3 -3 -124 -3 -123 -42 6 c-63 9 -191 39 -198 45 -4 3 -9 81
-12 174 l-6 167 1111 0 1110 0 -6 -24z m-366 -284 l0 -129 -97 -12 c-392 -47
-887 -40 -1278 19 -77 12 -148 23 -157 26 -16 5 -18 19 -18 115 l0 109 775 0
775 0 0 -128z"/>
<path d="M5882 10073 c2 -10 14 -19 28 -21 48 -6 49 -16 43 -286 -3 -138 -10
-259 -14 -268 -5 -9 -24 -18 -41 -20 -22 -2 -34 -9 -36 -20 -3 -16 8 -18 127
-18 110 0 131 2 131 15 0 8 -9 15 -19 15 -10 0 -28 8 -40 18 -20 16 -22 25
-19 127 l3 110 27 3 c15 2 35 -1 45 -7 10 -5 51 -60 93 -122 91 -137 129 -168
218 -176 53 -5 62 -3 62 10 0 9 -11 19 -25 23 -36 9 -132 117 -189 212 -27 45
-47 84 -45 85 2 2 22 15 45 29 55 35 78 85 72 155 -6 64 -28 98 -84 127 -34
18 -60 21 -212 24 -164 3 -174 3 -170 -15z m305 -43 c42 -25 63 -68 63 -125 0
-94 -46 -135 -151 -135 l-62 0 6 83 c4 45 7 108 7 140 l0 57 53 0 c34 0 63 -7
84 -20z"/>
<path d="M6537 10084 c-14 -14 -7 -24 27 -38 18 -8 37 -19 40 -25 4 -6 -5 -87
-19 -180 -30 -206 -32 -290 -5 -348 32 -72 137 -123 252 -123 109 0 191 62
226 171 12 35 31 129 43 209 27 177 36 200 85 200 28 0 35 4 32 17 -2 14 -21
20 -83 29 -140 21 -139 21 -143 2 -2 -12 3 -18 16 -18 11 0 30 -9 43 -19 l24
-19 -23 -162 c-29 -201 -42 -245 -87 -298 -43 -49 -93 -68 -158 -58 -96 15
-157 88 -157 189 0 68 45 360 60 388 8 13 21 19 45 19 24 0 35 5 35 15 0 8 -1
15 -2 15 -37 3 -217 30 -229 35 -8 3 -18 2 -22 -1z"/>
<path d="M5393 10045 c-76 -21 -122 -47 -170 -97 -81 -83 -111 -204 -79 -326
39 -154 159 -245 321 -246 96 0 145 13 209 56 165 109 196 355 65 518 -70 87
-224 130 -346 95z m178 -65 c50 -33 106 -112 127 -179 10 -35 17 -89 17 -141
0 -72 -4 -92 -25 -130 -39 -69 -96 -104 -179 -108 -54 -3 -76 0 -108 16 -133
69 -214 308 -149 444 23 49 62 86 111 110 57 27 157 21 206 -12z"/>
<path d="M7310 9947 c0 -7 14 -23 30 -36 37 -27 40 -12 -45 -226 -74 -187
-122 -292 -138 -302 -6 -4 -26 -6 -45 -5 -27 2 -33 -1 -30 -14 4 -23 196 -90
212 -74 8 9 6 15 -8 24 -58 35 -58 36 -40 96 9 30 44 125 77 210 l61 155 8
-60 c3 -33 16 -157 28 -275 12 -118 24 -218 27 -223 3 -5 95 80 204 189 110
109 199 194 199 189 0 -25 -131 -400 -142 -407 -7 -4 -28 -5 -45 -2 -25 5 -33
3 -33 -9 0 -10 34 -26 103 -50 56 -20 110 -39 120 -42 13 -5 17 -2 17 13 0 12
-9 23 -20 27 -45 14 -43 33 30 270 39 124 77 240 86 257 15 29 18 30 60 24 37
-5 44 -3 44 12 0 12 -21 24 -78 44 -71 25 -78 26 -87 10 -11 -19 -377 -393
-381 -389 -2 1 -16 110 -33 242 -21 166 -28 251 -22 277 l8 36 -76 26 c-88 30
-91 30 -91 13z"/>
<path d="M4930 9939 c-14 -6 -63 -21 -110 -33 -64 -16 -86 -26 -88 -40 -4 -16
1 -18 32 -12 30 6 37 3 50 -16 8 -13 45 -133 83 -267 l67 -243 -21 -17 c-11
-9 -29 -21 -39 -27 -14 -9 -16 -15 -8 -23 14 -16 249 51 249 71 0 9 -11 12
-37 10 -32 -2 -39 1 -51 25 -24 46 -147 492 -140 509 3 8 19 22 35 30 46 24
27 52 -22 33z"/>
<path d="M4363 9739 c-102 -20 -363 -139 -363 -165 0 -13 7 -15 29 -11 16 3
36 1 45 -6 18 -14 206 -458 206 -487 0 -11 -3 -20 -7 -20 -5 -1 -19 -10 -32
-21 -17 -14 -21 -23 -14 -30 8 -8 39 0 104 26 52 20 123 47 159 61 131 51 234
149 261 247 18 66 7 173 -25 238 -66 140 -198 201 -363 168z m144 -77 c82 -42
147 -152 159 -271 14 -125 -52 -215 -192 -265 -57 -20 -91 -11 -119 33 -25 40
-185 424 -185 444 0 17 51 46 119 69 71 23 161 19 218 -10z"/>
<path d="M3813 9496 c-52 -32 -81 -57 -80 -66 2 -8 10 -13 18 -11 50 13 61 12
84 -9 29 -28 96 -126 161 -239 80 -139 73 -237 -23 -301 -89 -58 -161 -50
-236 26 -47 49 -217 320 -217 347 0 9 10 25 21 36 13 12 19 26 16 36 -5 13
-15 9 -59 -20 -29 -19 -77 -48 -105 -65 -54 -31 -75 -69 -30 -55 62 20 62 20
174 -155 149 -234 178 -260 290 -260 96 1 191 54 244 138 24 38 29 57 29 109
0 81 -21 136 -102 265 -112 178 -127 217 -88 238 25 13 26 40 3 39 -10 -1 -55
-24 -100 -53z"/>
<path d="M8675 9359 c-4 -6 2 -21 14 -33 12 -12 21 -31 21 -42 0 -20 -197
-264 -293 -362 -53 -54 -56 -55 -114 -37 -35 11 -30 -27 6 -48 16 -9 55 -38
85 -63 51 -41 76 -49 76 -24 0 5 -11 21 -25 34 -22 22 -24 29 -14 48 16 30 87
123 171 225 68 82 88 101 88 86 0 -12 -75 -364 -107 -500 -4 -15 -1 -23 8 -23
7 0 121 54 252 121 131 66 240 119 242 117 4 -4 -217 -303 -244 -331 -17 -18
-20 -18 -51 -2 -27 14 -34 14 -41 4 -4 -8 -5 -17 -1 -21 22 -20 186 -138 193
-138 21 0 19 24 -5 49 l-27 28 51 77 c28 43 80 119 117 169 157 217 159 219
200 191 24 -15 58 -12 51 5 -3 10 -124 101 -134 101 -3 0 -19 -11 -36 -25 -31
-26 -447 -239 -454 -232 -2 2 7 60 20 128 14 68 35 173 46 234 12 60 28 125
37 143 9 18 14 34 12 36 -18 18 -124 96 -130 96 -4 0 -11 -5 -14 -11z"/>
<path d="M3238 9138 c-2 -14 -70 -80 -191 -185 -155 -135 -193 -163 -215 -161
-34 4 -33 -2 7 -84 40 -82 67 -93 56 -23 -5 36 -2 52 14 78 20 33 103 108 118
106 7 0 63 -65 291 -336 34 -41 62 -80 62 -88 0 -7 -12 -28 -26 -45 -19 -22
-24 -34 -16 -42 8 -8 35 10 97 63 48 41 97 82 108 91 17 13 19 20 10 29 -10
10 -20 9 -47 -6 -30 -16 -37 -17 -54 -4 -16 11 -283 318 -340 391 -12 15 -9
21 23 50 48 42 105 78 126 78 9 0 28 -10 43 -21 20 -15 31 -18 38 -11 8 8 -2
30 -33 76 -46 69 -66 81 -71 44z"/>
<path d="M9435 8758 c-4 -9 -2 -25 4 -37 25 -47 34 -37 -247 -297 -68 -63
-130 -114 -138 -114 -8 0 -28 10 -44 22 -23 17 -33 19 -42 10 -9 -9 11 -35 88
-114 55 -57 132 -138 171 -182 l72 -78 65 30 c60 28 81 52 58 66 -4 2 -29 -1
-55 -7 -42 -9 -53 -8 -84 8 -35 19 -110 100 -132 142 -16 31 1 54 96 139 l75
68 30 -35 c16 -18 40 -48 54 -66 l26 -32 -22 -31 c-21 -29 -20 -50 2 -50 14 0
142 120 146 137 5 20 -17 25 -40 9 -12 -9 -28 -16 -36 -16 -16 0 -122 99 -122
114 0 6 39 47 87 91 l86 79 59 -63 c75 -80 85 -103 62 -153 -14 -31 -15 -41
-5 -51 9 -9 21 -1 56 38 24 28 44 55 44 60 0 6 -69 82 -154 170 -118 122 -155
156 -160 143z"/>
<path d="M2668 8605 c-68 -50 -101 -104 -106 -175 -11 -150 96 -210 286 -161
102 26 148 26 190 1 39 -24 67 -78 58 -113 -9 -39 -52 -83 -96 -101 -41 -16
-68 -15 -123 6 -20 8 -31 8 -39 0 -16 -16 1 -33 63 -66 51 -28 51 -28 90 -11
51 23 133 110 149 159 30 93 -11 190 -97 228 -55 24 -122 21 -239 -11 -71 -19
-85 -20 -119 -9 -49 16 -89 71 -80 107 18 71 93 121 154 102 20 -5 40 -12 46
-13 5 -2 11 4 13 14 3 15 -74 78 -95 78 -4 0 -29 -16 -55 -35z"/>
<path d="M9865 8271 c-3 -5 0 -21 6 -35 9 -20 9 -29 -1 -41 -20 -24 -387 -276
-420 -288 -26 -10 -32 -8 -55 13 -19 17 -28 21 -36 13 -9 -9 0 -28 33 -75 24
-35 62 -92 83 -128 54 -91 129 -167 200 -203 52 -27 71 -31 140 -31 66 -1 90
4 136 25 73 34 128 85 163 149 26 48 28 58 24 144 -3 80 -8 100 -40 163 -41
83 -197 302 -215 303 -6 0 -14 -4 -18 -9z m119 -194 c114 -139 117 -283 9
-393 -47 -48 -152 -103 -212 -111 -88 -12 -182 41 -243 136 -32 51 -36 90 -10
120 17 21 401 290 414 291 4 0 23 -19 42 -43z"/>
<path d="M2088 7853 c-76 -78 -101 -196 -55 -263 40 -59 71 -75 145 -75 58 0
79 6 153 41 112 54 139 60 184 38 84 -39 100 -116 39 -183 -42 -48 -88 -65
-147 -56 -31 5 -47 3 -52 -5 -9 -15 4 -24 74 -50 52 -20 54 -20 84 -3 45 27
114 133 123 189 18 120 -65 214 -189 214 -45 0 -71 -8 -148 -47 -122 -62 -175
-65 -221 -14 -25 28 -29 40 -25 68 13 76 65 119 139 116 41 -2 48 1 48 16 0
14 -13 24 -47 35 -63 22 -64 21 -105 -21z"/>
<path d="M10276 7638 c15 -46 9 -61 -31 -89 -52 -35 -402 -218 -431 -225 -15
-4 -27 2 -43 21 -12 17 -27 25 -36 21 -12 -4 -4 -26 42 -113 65 -126 64 -124
81 -114 10 6 10 15 1 41 -11 30 -10 35 13 55 33 28 440 245 461 245 8 0 24
-12 35 -27 12 -17 25 -24 35 -20 14 5 7 24 -41 116 -40 79 -62 111 -75 111
-15 0 -17 -5 -11 -22z"/>
<path d="M10180 7248 c-52 -14 -140 -77 -172 -123 -46 -67 -61 -127 -56 -219
6 -101 31 -159 98 -230 70 -75 130 -100 240 -100 64 -1 97 4 130 18 160 70
238 202 212 360 -22 134 -106 243 -218 285 -59 23 -170 27 -234 9z m243 -79
c49 -13 115 -73 138 -124 25 -55 24 -138 -2 -192 -45 -93 -189 -182 -309 -191
-120 -8 -195 37 -235 142 -47 122 25 251 182 330 87 43 157 54 226 35z"/>
<path d="M2428 7220 c-32 -37 -29 -37 -363 -10 -138 12 -263 22 -280 23 -29 2
-30 1 -27 -38 2 -22 9 -42 15 -44 7 -2 108 -99 225 -215 l213 -212 -7 -42
c-10 -61 18 -57 41 6 10 26 29 68 42 95 21 42 22 48 8 54 -10 3 -22 -2 -31
-16 -8 -11 -21 -21 -27 -21 -7 0 -45 30 -86 68 l-73 67 38 88 39 89 100 -7
c55 -4 104 -9 108 -12 5 -3 6 -21 2 -40 -5 -29 -3 -34 10 -31 14 3 105 193
105 219 0 19 -27 8 -52 -21z m-390 -96 c40 -4 61 -11 59 -18 -37 -93 -54 -126
-62 -126 -6 0 -46 36 -90 81 l-80 81 55 -6 c30 -3 83 -9 118 -12z"/>
<path d="M1615 6909 c4 -25 -10 -90 -55 -249 -69 -244 -74 -260 -94 -260 -7 0
-16 -7 -20 -15 -4 -10 8 -22 37 -36 23 -12 54 -30 69 -41 27 -19 48 -17 48 4
0 6 -14 26 -31 46 -28 32 -31 40 -25 80 8 62 28 123 41 128 16 6 480 -130 510
-150 24 -16 25 -21 19 -63 -6 -40 -5 -45 11 -41 14 2 25 29 47 108 42 155 44
170 24 170 -8 0 -18 -11 -22 -24 -3 -14 -13 -31 -23 -40 -15 -14 -40 -9 -276
58 l-260 74 1 29 c3 50 24 112 48 140 19 22 33 28 63 28 57 0 48 22 -22 51
-99 42 -97 42 -90 3z"/>
<path d="M10717 6603 c-4 -3 -5 -21 -1 -39 5 -27 2 -35 -18 -48 -27 -18 -391
-104 -475 -113 -52 -6 -52 -6 -69 31 -20 40 -40 43 -38 5 1 -24 91 -429 96
-435 2 -1 37 -4 78 -6 59 -2 75 0 75 11 0 8 -20 20 -47 28 -71 20 -86 45 -113
195 -11 60 4 67 257 127 125 29 240 51 255 49 25 -3 39 -19 57 -63 2 -6 8 -6
16 2 12 11 7 42 -38 227 -7 30 -22 42 -35 29z"/>
<path d="M1450 6236 c0 -3 -7 -52 -16 -109 -9 -56 -17 -113 -18 -126 -2 -38
21 -36 34 3 6 19 20 38 30 41 20 6 481 -69 518 -85 18 -8 22 -18 22 -50 0 -32
4 -40 18 -40 15 0 20 18 35 115 10 64 20 122 24 130 3 10 -1 15 -14 15 -13 0
-23 -12 -32 -35 -10 -29 -17 -35 -40 -35 -35 0 -434 66 -483 80 -37 11 -42 17
-50 74 -3 17 -28 37 -28 22z"/>
<path d="M10237 5828 c3 -57 9 -107 13 -112 14 -15 30 4 30 35 0 16 5 29 11
29 30 0 189 -43 197 -53 15 -19 22 -185 8 -195 -17 -14 -163 -72 -179 -72 -8
0 -17 13 -20 30 -4 19 -13 30 -23 30 -15 0 -16 -9 -11 -67 4 -38 7 -94 7 -125
0 -51 2 -58 19 -58 16 0 20 8 23 37 4 47 15 54 289 167 260 108 319 134 319
143 -1 16 -50 63 -65 63 -17 0 -191 50 -420 122 -71 22 -137 47 -146 55 -9 8
-19 27 -23 44 -3 16 -12 29 -20 29 -12 0 -13 -18 -9 -102z m426 -144 c51 -15
98 -30 105 -33 8 -4 -30 -25 -92 -50 -58 -24 -109 -40 -115 -36 -14 8 -14 145
0 145 5 0 52 -12 102 -26z"/>
<path d="M1409 5833 c-20 -5 -42 -89 -41 -157 1 -115 67 -186 173 -186 73 0
122 36 208 152 54 73 84 91 144 92 43 1 52 -3 78 -32 23 -26 29 -42 29 -79 0
-66 -36 -115 -106 -144 -66 -28 -71 -49 -11 -49 23 0 59 3 79 6 34 6 39 11 58
61 27 73 27 180 0 233 -29 57 -72 84 -145 88 -96 6 -150 -29 -245 -161 -64
-90 -137 -112 -191 -58 -24 25 -29 38 -29 80 0 59 27 98 81 116 19 7 35 19 37
28 3 14 -5 17 -50 16 -29 -1 -60 -3 -69 -6z"/>
<path d="M1981 5369 c-18 -51 -66 -103 -172 -184 -55 -42 -101 -76 -103 -74
-28 45 -62 80 -89 93 -67 31 -166 14 -201 -35 -39 -55 -47 -118 -36 -260 6
-74 13 -142 16 -151 8 -27 34 -22 34 6 0 54 7 56 352 77 196 11 212 8 223 -41
4 -18 13 -30 22 -30 14 0 15 11 9 77 -3 42 -6 100 -6 130 0 40 -4 53 -15 53
-8 0 -17 -14 -21 -35 -3 -20 -14 -40 -24 -45 -9 -5 -65 -12 -124 -16 l-106 -7
0 32 c0 49 14 66 113 140 51 38 102 79 114 92 44 48 63 125 47 187 -9 31 -20
28 -33 -9z m-334 -269 c34 -21 53 -67 53 -132 0 -45 1 -44 -156 -53 l-121 -7
-6 42 c-9 70 24 138 78 160 38 16 118 11 152 -10z"/>
<path d="M10266 5120 c-4 -56 -9 -107 -13 -115 -3 -10 2 -15 16 -15 15 0 21 6
21 21 0 46 17 59 78 59 57 0 365 -28 391 -36 8 -3 -22 -29 -70 -62 -46 -31
-147 -102 -224 -158 -77 -55 -168 -120 -203 -144 -34 -24 -61 -48 -59 -54 2
-7 108 -22 263 -38 361 -37 341 -32 354 -92 3 -17 12 -31 20 -31 11 0 18 26
27 105 6 58 12 111 12 118 1 6 -7 12 -18 12 -14 0 -21 -10 -25 -35 -4 -19 -12
-37 -18 -41 -25 -16 -380 6 -416 25 -8 5 39 45 130 111 161 118 356 250 368
250 8 0 12 18 25 123 5 38 3 47 -9 47 -9 0 -22 -16 -30 -35 -25 -59 -40 -61
-267 -35 -111 12 -225 28 -253 34 -49 11 -51 13 -54 49 -2 28 -8 37 -21 37
-16 0 -19 -13 -25 -100z"/>
<path d="M1902 4704 c2 -9 20 -22 41 -29 62 -21 84 -49 102 -130 22 -96 17
-136 -15 -152 -21 -10 -158 -40 -209 -46 -16 -2 -40 77 -41 131 0 27 6 36 35
53 63 37 42 55 -42 35 -32 -8 -75 -17 -95 -21 -46 -7 -53 -35 -10 -35 16 0 35
-6 44 -12 14 -12 53 -156 45 -165 -9 -8 -217 -45 -230 -40 -16 6 -37 99 -37
163 0 37 5 47 35 71 41 33 49 68 13 58 -49 -15 -118 -37 -118 -39 1 0 20 -98
44 -216 34 -167 47 -216 60 -218 12 -3 16 5 16 32 0 25 6 38 19 46 31 16 507
111 525 104 8 -3 20 -21 26 -40 6 -19 18 -34 26 -34 8 0 14 3 14 8 0 4 -21
114 -47 244 l-48 236 -29 6 c-16 3 -51 6 -78 6 -40 0 -49 -3 -46 -16z"/>
<path d="M10136 4290 c-67 -272 -70 -242 27 -295 41 -23 48 -24 53 -11 4 11
-9 33 -36 62 -40 44 -42 48 -35 92 10 64 43 170 57 178 19 12 78 5 168 -20 83
-23 85 -24 82 -52 -2 -15 -11 -51 -21 -78 -16 -48 -20 -51 -57 -56 -25 -3 -40
-11 -42 -21 -2 -12 17 -20 80 -37 46 -11 91 -24 101 -27 13 -6 17 -2 17 14 0
14 -9 25 -25 31 -14 5 -28 17 -32 26 -5 13 23 165 30 164 18 -3 230 -60 233
-63 9 -9 -35 -161 -54 -186 -11 -14 -28 -27 -38 -29 -49 -7 -64 -13 -64 -26 0
-9 22 -18 66 -25 37 -7 68 -11 69 -9 2 2 21 75 44 163 22 88 47 182 55 209 8
27 13 53 10 58 -11 17 -30 7 -41 -22 -9 -23 -17 -30 -39 -30 -44 0 -487 120
-506 137 -14 12 -16 25 -12 54 6 34 4 39 -12 39 -16 0 -27 -34 -78 -240z"/>
<path d="M1523 4033 c37 -123 64 -182 81 -183 16 0 17 5 11 37 l-7 36 159 -6
c87 -4 199 -10 249 -13 l91 -7 -81 -75 c-45 -41 -128 -115 -185 -165 -97 -83
-105 -88 -118 -71 -7 10 -13 21 -13 26 0 4 -9 8 -20 8 -25 0 -25 2 1 -62 12
-29 30 -78 39 -108 20 -61 47 -76 42 -23 -2 23 5 40 27 66 34 38 397 361 442
392 16 11 29 27 29 36 0 14 -21 17 -147 23 -177 8 -351 23 -453 37 -74 11
-110 29 -110 56 0 7 -10 13 -21 13 -16 0 -20 -5 -16 -17z"/>
<path d="M10034 3913 c-9 -21 -29 -67 -45 -102 -16 -35 -29 -67 -29 -72 0 -20
28 -7 49 22 20 27 28 31 57 26 35 -6 160 -57 310 -128 l89 -41 -60 -18 c-53
-17 -214 -66 -518 -161 -60 -19 -97 -35 -94 -42 2 -7 73 -42 158 -79 245 -106
356 -158 377 -179 16 -14 20 -26 15 -54 -5 -29 -3 -35 12 -35 9 0 19 9 22 21
3 11 23 57 44 101 22 44 37 84 33 89 -10 17 -29 9 -46 -21 -24 -42 -73 -38
-188 17 -19 9 -83 38 -143 64 l-107 47 157 50 c87 28 200 65 252 81 52 17 120
36 153 42 50 10 61 16 69 38 6 14 21 47 35 74 22 42 23 48 8 54 -11 4 -24 -4
-41 -26 -15 -18 -34 -31 -47 -31 -21 0 -341 136 -445 189 -43 23 -43 23 -37
67 4 35 3 44 -10 44 -8 0 -22 -17 -30 -37z"/>
<path d="M2353 3573 l2 -48 -90 -45 c-131 -65 -367 -177 -387 -184 -12 -4 -25
4 -40 24 -21 29 -48 40 -48 21 0 -5 24 -59 53 -120 36 -78 57 -110 67 -108 8
2 13 10 11 18 -14 50 -12 66 11 81 47 31 449 218 468 218 11 0 27 -11 36 -25
18 -28 44 -34 44 -10 0 8 -15 43 -33 77 -18 35 -41 82 -50 106 -24 59 -48 57
-44 -5z"/>
<path d="M2445 3244 c-114 -78 -337 -220 -386 -244 l-41 -22 -28 27 c-26 25
-50 27 -50 5 0 -7 96 -163 116 -189 2 -2 10 -1 18 2 14 5 14 10 0 42 -16 40
-12 51 31 87 38 32 307 209 311 205 3 -3 -6 -38 -90 -347 -20 -74 -48 -162
-61 -195 -14 -33 -25 -64 -25 -68 0 -5 19 -38 42 -73 41 -64 67 -78 59 -33
-13 77 -11 80 79 142 127 87 316 206 345 217 21 8 29 6 47 -15 23 -27 48 -33
48 -12 0 8 -25 52 -55 98 -30 46 -56 88 -58 93 -2 5 -11 7 -20 3 -16 -6 -16
-9 -2 -36 21 -41 19 -53 -12 -83 -30 -28 -332 -228 -345 -228 -4 0 -3 12 2 28
22 68 180 629 180 640 0 22 -24 12 -105 -44z"/>
<path d="M9685 3199 c-66 -61 -99 -134 -93 -208 7 -104 78 -166 188 -165 43 1
74 10 145 43 50 23 109 45 132 48 39 5 45 3 78 -30 41 -41 45 -75 15 -124 -28
-47 -66 -68 -124 -68 -27 0 -51 -5 -53 -11 -2 -6 22 -23 54 -37 l58 -27 51 53
c139 148 84 336 -99 337 -35 0 -76 -12 -151 -45 -57 -25 -113 -45 -125 -45
-42 0 -102 39 -117 77 -14 33 -14 38 8 82 34 69 77 93 157 89 82 -4 90 12 22
46 -70 36 -93 33 -146 -15z"/>
<path d="M9411 2794 c-40 -54 -70 -102 -67 -110 6 -16 26 -19 26 -4 0 5 11 17
24 25 32 21 31 22 250 -147 225 -173 220 -169 199 -213 -17 -36 -14 -51 9 -42
7 2 47 48 87 102 58 76 71 99 60 105 -9 6 -22 1 -41 -17 -23 -22 -31 -25 -50
-16 -25 12 -331 244 -387 294 -34 30 -35 35 -16 97 16 50 -25 18 -94 -74z"/>
<path d="M2805 2606 c-27 -13 -97 -66 -155 -117 -123 -110 -184 -159 -198
-159 -5 0 -21 10 -36 21 -19 15 -31 18 -38 11 -8 -8 12 -36 67 -96 43 -47 82
-86 86 -86 19 0 19 22 0 46 -12 15 -21 32 -21 38 0 33 237 253 313 291 89 44
163 31 225 -39 64 -73 65 -148 3 -233 -40 -56 -282 -272 -303 -273 -10 0 -27
9 -38 20 -21 21 -40 19 -40 -3 1 -7 39 -52 85 -102 66 -71 86 -87 96 -78 10
10 9 16 -3 30 -39 46 -49 32 201 269 158 149 173 266 51 398 -81 88 -191 111
-295 62z"/>
<path d="M9198 2549 c-52 -34 -103 -103 -118 -160 -20 -74 23 -169 93 -206 45
-24 134 -22 245 6 79 20 97 21 122 11 38 -16 80 -65 80 -93 0 -28 -27 -69 -63
-97 -28 -22 -77 -24 -133 -5 -15 4 -23 2 -27 -9 -5 -11 8 -27 41 -51 26 -19
52 -35 57 -35 22 0 111 79 139 124 57 92 33 200 -56 247 -48 25 -120 24 -228
-2 -103 -24 -139 -19 -185 27 -45 44 -47 91 -9 142 45 59 119 77 191 47 77
-32 60 25 -19 66 -51 26 -75 24 -130 -12z"/>
<path d="M5590 8396 c0 -7 6 -19 14 -25 8 -7 12 -20 9 -30 -4 -15 3 -20 31
-25 50 -9 166 4 166 19 0 7 -27 26 -59 44 -65 34 -161 45 -161 17z"/>
</g>
</svg>
